<mxfile host="app.diagrams.net" agent="Mozilla/5.0 (Windows NT 10.0; Win64; x64) AppleWebKit/537.36 (KHTML, like Gecko) Chrome/135.0.0.0 Safari/537.36" version="26.2.14">
  <diagram name="Page-1" id="QL06ZrB4VRhml_1bxmMK">
    <mxGraphModel dx="1601" dy="779" grid="1" gridSize="10" guides="1" tooltips="1" connect="1" arrows="1" fold="1" page="1" pageScale="1" pageWidth="1200" pageHeight="1600" math="0" shadow="0">
      <root>
        <mxCell id="0" />
        <mxCell id="1" parent="0" />
        <mxCell id="Psm4lfIMPpinbxjlF30g-2" value="&lt;span style=&quot;color: rgb(0, 0, 0); font-size: 12px;&quot;&gt;This sequence diagram illustrates the setup of a 5x5 game board&lt;/span&gt;" style="shape=note;strokeWidth=2;fontSize=14;size=20;whiteSpace=wrap;html=1;fillColor=#fff2cc;strokeColor=#d6b656;fontColor=#666600;align=left;" parent="1" vertex="1">
          <mxGeometry x="161" y="10" width="120" height="100" as="geometry" />
        </mxCell>
        <mxCell id="Psm4lfIMPpinbxjlF30g-4" value="&lt;font color=&quot;#000000&quot;&gt;&lt;span style=&quot;font-size: 12px;&quot;&gt;Each player is randomly assigned one of the two God cards; a shuffling logic is utilised on the &#39;gods&#39; array, which is then dealt out to players to simulate randomness&lt;/span&gt;&lt;/font&gt;" style="shape=note;strokeWidth=2;fontSize=14;size=20;whiteSpace=wrap;html=1;fillColor=#fff2cc;strokeColor=#d6b656;fontColor=#666600;align=left;" parent="1" vertex="1">
          <mxGeometry x="85" y="550" width="149" height="160" as="geometry" />
        </mxCell>
        <mxCell id="Psm4lfIMPpinbxjlF30g-6" value="&lt;span style=&quot;color: rgb(0, 0, 0); font-size: 12px;&quot;&gt;Four workers are randomly positioned on the board&lt;/span&gt;&lt;div&gt;&lt;span style=&quot;color: rgb(0, 0, 0); font-size: 12px;&quot;&gt;coord is derived from the list &#39;availableGround&#39; that has been shuffled&lt;/span&gt;&lt;/div&gt;" style="shape=note;strokeWidth=2;fontSize=14;size=20;whiteSpace=wrap;html=1;fillColor=#fff2cc;strokeColor=#d6b656;fontColor=#666600;align=left;" parent="1" vertex="1">
          <mxGeometry x="85" y="973" width="129.5" height="119" as="geometry" />
        </mxCell>
        <mxCell id="Psm4lfIMPpinbxjlF30g-7" value=":NewGamePanel" style="rounded=0;whiteSpace=wrap;html=1;" parent="1" vertex="1">
          <mxGeometry x="10" y="150" width="120" height="40" as="geometry" />
        </mxCell>
        <mxCell id="Psm4lfIMPpinbxjlF30g-8" value=":Board" style="rounded=0;whiteSpace=wrap;html=1;" parent="1" vertex="1">
          <mxGeometry x="855" y="215" width="120" height="38" as="geometry" />
        </mxCell>
        <mxCell id="Psm4lfIMPpinbxjlF30g-10" value="" style="endArrow=none;dashed=1;html=1;rounded=0;strokeColor=#747474;" parent="1" target="Psm4lfIMPpinbxjlF30g-7" edge="1">
          <mxGeometry width="50" height="50" relative="1" as="geometry">
            <mxPoint x="70" y="1230.9410903033088" as="sourcePoint" />
            <mxPoint x="70.5" y="275" as="targetPoint" />
          </mxGeometry>
        </mxCell>
        <mxCell id="Psm4lfIMPpinbxjlF30g-11" value="" style="endArrow=none;dashed=1;html=1;rounded=0;entryX=0.5;entryY=1;entryDx=0;entryDy=0;strokeColor=#767676;" parent="1" source="Psm4lfIMPpinbxjlF30g-215" target="Psm4lfIMPpinbxjlF30g-8" edge="1">
          <mxGeometry width="50" height="50" relative="1" as="geometry">
            <mxPoint x="915" y="1010" as="sourcePoint" />
            <mxPoint x="989.5" y="270" as="targetPoint" />
          </mxGeometry>
        </mxCell>
        <mxCell id="Psm4lfIMPpinbxjlF30g-1" value="" style="rounded=0;whiteSpace=wrap;html=1;" parent="1" vertex="1">
          <mxGeometry x="65" y="212" width="10" height="118" as="geometry" />
        </mxCell>
        <mxCell id="Psm4lfIMPpinbxjlF30g-14" value=":Game" style="rounded=0;whiteSpace=wrap;html=1;" parent="1" vertex="1">
          <mxGeometry x="184" y="281" width="120" height="40" as="geometry" />
        </mxCell>
        <mxCell id="Psm4lfIMPpinbxjlF30g-34" value="" style="endArrow=classic;html=1;rounded=0;" parent="1" edge="1">
          <mxGeometry width="50" height="50" relative="1" as="geometry">
            <mxPoint x="251" y="380" as="sourcePoint" />
            <mxPoint x="250" y="700" as="targetPoint" />
            <Array as="points">
              <mxPoint x="708" y="380" />
              <mxPoint x="710" y="700" />
            </Array>
          </mxGeometry>
        </mxCell>
        <mxCell id="Psm4lfIMPpinbxjlF30g-36" value="initGods()" style="text;html=1;align=center;verticalAlign=middle;whiteSpace=wrap;rounded=0;" parent="1" vertex="1">
          <mxGeometry x="677" y="510" width="135" height="10" as="geometry" />
        </mxCell>
        <mxCell id="Psm4lfIMPpinbxjlF30g-46" value="" style="group" parent="1" vertex="1" connectable="0">
          <mxGeometry x="75" y="215" width="151" height="20" as="geometry" />
        </mxCell>
        <mxCell id="Psm4lfIMPpinbxjlF30g-41" value="&amp;lt;&amp;lt;creates&amp;gt;&amp;gt;" style="text;html=1;align=center;verticalAlign=middle;whiteSpace=wrap;rounded=0;" parent="Psm4lfIMPpinbxjlF30g-46" vertex="1">
          <mxGeometry x="-24" y="3" width="135" height="10" as="geometry" />
        </mxCell>
        <mxCell id="Psm4lfIMPpinbxjlF30g-51" value="" style="group" parent="1" vertex="1" connectable="0">
          <mxGeometry x="61" y="279" width="151" height="20" as="geometry" />
        </mxCell>
        <mxCell id="Psm4lfIMPpinbxjlF30g-53" value="&amp;lt;&amp;lt;creates&amp;gt;&amp;gt;" style="text;html=1;align=center;verticalAlign=middle;whiteSpace=wrap;rounded=0;" parent="Psm4lfIMPpinbxjlF30g-51" vertex="1">
          <mxGeometry x="9" y="5" width="135" height="10" as="geometry" />
        </mxCell>
        <mxCell id="Psm4lfIMPpinbxjlF30g-55" value="" style="endArrow=none;dashed=1;html=1;rounded=0;exitX=0.5;exitY=1;exitDx=0;exitDy=0;strokeColor=#7C7C7C;" parent="1" source="Psm4lfIMPpinbxjlF30g-14" edge="1">
          <mxGeometry width="50" height="50" relative="1" as="geometry">
            <mxPoint x="243" y="680" as="sourcePoint" />
            <mxPoint x="243" y="1240" as="targetPoint" />
          </mxGeometry>
        </mxCell>
        <mxCell id="Psm4lfIMPpinbxjlF30g-16" value="" style="rounded=0;whiteSpace=wrap;html=1;" parent="1" vertex="1">
          <mxGeometry x="239" y="345" width="10" height="855" as="geometry" />
        </mxCell>
        <mxCell id="Psm4lfIMPpinbxjlF30g-52" value="" style="endArrow=classic;html=1;rounded=0;entryX=0;entryY=0.5;entryDx=0;entryDy=0;exitX=1;exitY=0.75;exitDx=0;exitDy=0;" parent="1" source="Psm4lfIMPpinbxjlF30g-1" target="Psm4lfIMPpinbxjlF30g-14" edge="1">
          <mxGeometry width="50" height="50" relative="1" as="geometry">
            <mxPoint x="81" y="300" as="sourcePoint" />
            <mxPoint x="271" y="290" as="targetPoint" />
          </mxGeometry>
        </mxCell>
        <mxCell id="Psm4lfIMPpinbxjlF30g-56" value="&lt;span style=&quot;color: rgb(0, 0, 0); font-size: 12px;&quot;&gt;Scenario specific to where a New Game has been started with 2 players and 2 gods&lt;/span&gt;" style="shape=note;strokeWidth=2;fontSize=14;size=20;whiteSpace=wrap;html=1;fillColor=#fff2cc;strokeColor=#d6b656;fontColor=#666600;align=left;" parent="1" vertex="1">
          <mxGeometry x="10" y="10" width="120" height="100" as="geometry" />
        </mxCell>
        <mxCell id="Psm4lfIMPpinbxjlF30g-62" value="" style="group" parent="1" vertex="1" connectable="0">
          <mxGeometry x="227" y="400" width="151" height="20" as="geometry" />
        </mxCell>
        <mxCell id="Psm4lfIMPpinbxjlF30g-63" value="&amp;lt;&amp;lt;creates&amp;gt;&amp;gt;" style="text;html=1;align=center;verticalAlign=middle;whiteSpace=wrap;rounded=0;" parent="Psm4lfIMPpinbxjlF30g-62" vertex="1">
          <mxGeometry x="9" y="5" width="135" height="10" as="geometry" />
        </mxCell>
        <mxCell id="Psm4lfIMPpinbxjlF30g-64" value="" style="endArrow=classic;html=1;rounded=0;" parent="1" edge="1">
          <mxGeometry width="50" height="50" relative="1" as="geometry">
            <mxPoint x="247" y="422" as="sourcePoint" />
            <mxPoint x="357" y="422" as="targetPoint" />
          </mxGeometry>
        </mxCell>
        <mxCell id="Psm4lfIMPpinbxjlF30g-66" value=":Artemis" style="rounded=0;whiteSpace=wrap;html=1;" parent="1" vertex="1">
          <mxGeometry x="360" y="404" width="120" height="35" as="geometry" />
        </mxCell>
        <mxCell id="Psm4lfIMPpinbxjlF30g-67" value="" style="endArrow=none;dashed=1;html=1;rounded=0;entryX=0.5;entryY=1;entryDx=0;entryDy=0;strokeColor=#767676;" parent="1" target="Psm4lfIMPpinbxjlF30g-66" edge="1">
          <mxGeometry width="50" height="50" relative="1" as="geometry">
            <mxPoint x="420" y="550" as="sourcePoint" />
            <mxPoint x="420" y="445" as="targetPoint" />
          </mxGeometry>
        </mxCell>
        <mxCell id="Psm4lfIMPpinbxjlF30g-76" value="" style="endArrow=none;dashed=1;html=1;rounded=0;entryX=0.5;entryY=1;entryDx=0;entryDy=0;strokeColor=#767676;" parent="1" edge="1">
          <mxGeometry width="50" height="50" relative="1" as="geometry">
            <mxPoint x="420" y="1230" as="sourcePoint" />
            <mxPoint x="420" y="550" as="targetPoint" />
          </mxGeometry>
        </mxCell>
        <mxCell id="Psm4lfIMPpinbxjlF30g-77" value=":Demeter" style="rounded=0;whiteSpace=wrap;html=1;" parent="1" vertex="1">
          <mxGeometry x="433" y="466" width="120" height="40" as="geometry" />
        </mxCell>
        <mxCell id="Psm4lfIMPpinbxjlF30g-78" value="" style="endArrow=none;dashed=1;html=1;rounded=0;entryX=0.5;entryY=1;entryDx=0;entryDy=0;strokeColor=#727272;" parent="1" target="Psm4lfIMPpinbxjlF30g-77" edge="1">
          <mxGeometry width="50" height="50" relative="1" as="geometry">
            <mxPoint x="493" y="1220" as="sourcePoint" />
            <mxPoint x="526.5" y="517" as="targetPoint" />
          </mxGeometry>
        </mxCell>
        <mxCell id="Psm4lfIMPpinbxjlF30g-79" value="" style="group" parent="1" vertex="1" connectable="0">
          <mxGeometry x="226" y="453" width="151" height="20" as="geometry" />
        </mxCell>
        <mxCell id="Psm4lfIMPpinbxjlF30g-80" value="&amp;lt;&amp;lt;creates&amp;gt;&amp;gt;" style="text;html=1;align=center;verticalAlign=middle;whiteSpace=wrap;rounded=0;" parent="Psm4lfIMPpinbxjlF30g-79" vertex="1">
          <mxGeometry x="9" y="20" width="135" height="10" as="geometry" />
        </mxCell>
        <mxCell id="Psm4lfIMPpinbxjlF30g-81" value="" style="endArrow=classic;html=1;rounded=0;entryX=0;entryY=0.5;entryDx=0;entryDy=0;" parent="1" target="Psm4lfIMPpinbxjlF30g-77" edge="1">
          <mxGeometry width="50" height="50" relative="1" as="geometry">
            <mxPoint x="248" y="487" as="sourcePoint" />
            <mxPoint x="437.0000000000002" y="486.25" as="targetPoint" />
          </mxGeometry>
        </mxCell>
        <mxCell id="Psm4lfIMPpinbxjlF30g-84" value="random:Random" style="rounded=0;whiteSpace=wrap;html=1;" parent="1" vertex="1">
          <mxGeometry x="513" y="524" width="120" height="35" as="geometry" />
        </mxCell>
        <mxCell id="Psm4lfIMPpinbxjlF30g-85" value="" style="endArrow=none;dashed=1;html=1;rounded=0;entryX=0.5;entryY=1;entryDx=0;entryDy=0;strokeColor=#878787;" parent="1" source="Psm4lfIMPpinbxjlF30g-156" target="Psm4lfIMPpinbxjlF30g-84" edge="1">
          <mxGeometry width="50" height="50" relative="1" as="geometry">
            <mxPoint x="573" y="790" as="sourcePoint" />
            <mxPoint x="517.5" y="624" as="targetPoint" />
          </mxGeometry>
        </mxCell>
        <mxCell id="Psm4lfIMPpinbxjlF30g-88" value="" style="endArrow=classic;html=1;rounded=0;entryX=0;entryY=0.5;entryDx=0;entryDy=0;" parent="1" target="Psm4lfIMPpinbxjlF30g-84" edge="1">
          <mxGeometry width="50" height="50" relative="1" as="geometry">
            <mxPoint x="250" y="542" as="sourcePoint" />
            <mxPoint x="428.0000000000002" y="593.25" as="targetPoint" />
          </mxGeometry>
        </mxCell>
        <mxCell id="Psm4lfIMPpinbxjlF30g-87" value="&amp;lt;&amp;lt;creates&amp;gt;&amp;gt;" style="text;html=1;align=center;verticalAlign=middle;whiteSpace=wrap;rounded=0;" parent="1" vertex="1">
          <mxGeometry x="234" y="528" width="135" height="10" as="geometry" />
        </mxCell>
        <mxCell id="Psm4lfIMPpinbxjlF30g-89" value="" style="shape=umlDestroy;whiteSpace=wrap;html=1;strokeWidth=1;targetShapes=umlLifeline;" parent="1" vertex="1">
          <mxGeometry x="562" y="670" width="22" height="23" as="geometry" />
        </mxCell>
        <mxCell id="Psm4lfIMPpinbxjlF30g-136" value="&lt;b&gt;loop&lt;/b&gt;" style="shape=umlFrame;whiteSpace=wrap;html=1;pointerEvents=0;recursiveResize=0;container=1;collapsible=0;width=40;height=20;fillColor=#B3B3B3;strokeColor=#6A6A6A;" parent="1" vertex="1">
          <mxGeometry x="267" y="580" width="430" height="80" as="geometry" />
        </mxCell>
        <mxCell id="Psm4lfIMPpinbxjlF30g-137" value="&lt;span style=&quot;font-size: 8px;&quot;&gt;&lt;b&gt;[for each god]&lt;/b&gt;&lt;/span&gt;" style="text;html=1;align=center;verticalAlign=middle;resizable=0;points=[];autosize=1;strokeColor=none;fillColor=none;" parent="Psm4lfIMPpinbxjlF30g-136" vertex="1">
          <mxGeometry x="40" y="-9" width="80" height="30" as="geometry" />
        </mxCell>
        <mxCell id="Psm4lfIMPpinbxjlF30g-154" value="&lt;div&gt;&lt;span style=&quot;font-size: 8px;&quot;&gt;The random integer generated determines the new index for each God&lt;/span&gt;&lt;/div&gt;" style="shape=note;size=12;whiteSpace=wrap;html=1;fillColor=#fff2cc;strokeColor=#d6b656;align=left;" parent="Psm4lfIMPpinbxjlF30g-136" vertex="1">
          <mxGeometry x="330" y="7" width="80" height="70" as="geometry" />
        </mxCell>
        <mxCell id="Psm4lfIMPpinbxjlF30g-158" value="nextInt(numberOfGods)" style="text;html=1;align=center;verticalAlign=middle;whiteSpace=wrap;rounded=0;" parent="Psm4lfIMPpinbxjlF30g-136" vertex="1">
          <mxGeometry x="10" y="30" width="135" height="10" as="geometry" />
        </mxCell>
        <mxCell id="Psm4lfIMPpinbxjlF30g-155" value="" style="endArrow=classic;html=1;rounded=0;entryX=0;entryY=0.5;entryDx=0;entryDy=0;" parent="1" target="Psm4lfIMPpinbxjlF30g-156" edge="1">
          <mxGeometry width="50" height="50" relative="1" as="geometry">
            <mxPoint x="250" y="625" as="sourcePoint" />
            <mxPoint x="433" y="651" as="targetPoint" />
          </mxGeometry>
        </mxCell>
        <mxCell id="Psm4lfIMPpinbxjlF30g-161" value="&lt;span style=&quot;color: rgb(0, 0, 0); font-size: 12px;&quot;&gt;This scenario only has 2 Gods: Artemis and Demeter&lt;/span&gt;" style="shape=note;strokeWidth=2;fontSize=14;size=20;whiteSpace=wrap;html=1;fillColor=#fff2cc;strokeColor=#d6b656;fontColor=#666600;align=left;" parent="1" vertex="1">
          <mxGeometry x="311" y="10" width="120" height="100" as="geometry" />
        </mxCell>
        <mxCell id="Psm4lfIMPpinbxjlF30g-162" value="" style="endArrow=none;dashed=1;html=1;rounded=0;entryX=0.5;entryY=1;entryDx=0;entryDy=0;strokeColor=#686868;" parent="1" target="Psm4lfIMPpinbxjlF30g-156" edge="1">
          <mxGeometry width="50" height="50" relative="1" as="geometry">
            <mxPoint x="573" y="680" as="sourcePoint" />
            <mxPoint x="573" y="565" as="targetPoint" />
          </mxGeometry>
        </mxCell>
        <mxCell id="Psm4lfIMPpinbxjlF30g-156" value="" style="rounded=0;whiteSpace=wrap;html=1;" parent="1" vertex="1">
          <mxGeometry x="568" y="605" width="10" height="40" as="geometry" />
        </mxCell>
        <mxCell id="Psm4lfIMPpinbxjlF30g-168" value="" style="endArrow=classic;html=1;rounded=0;entryX=0;entryY=0.5;entryDx=0;entryDy=0;" parent="1" edge="1">
          <mxGeometry width="50" height="50" relative="1" as="geometry">
            <mxPoint x="248" y="761.69" as="sourcePoint" />
            <mxPoint x="513" y="762" as="targetPoint" />
          </mxGeometry>
        </mxCell>
        <mxCell id="Psm4lfIMPpinbxjlF30g-170" value="&lt;b&gt;loop&lt;/b&gt;" style="shape=umlFrame;whiteSpace=wrap;html=1;pointerEvents=0;recursiveResize=0;container=1;collapsible=0;width=40;height=20;fillColor=#B3B3B3;strokeColor=#6A6A6A;" parent="1" vertex="1">
          <mxGeometry x="267" y="710" width="610" height="220" as="geometry" />
        </mxCell>
        <mxCell id="Psm4lfIMPpinbxjlF30g-171" value="&lt;span style=&quot;font-size: 8px;&quot;&gt;&lt;b&gt;[for each numberOfPlayers]&lt;/b&gt;&lt;/span&gt;" style="text;html=1;align=center;verticalAlign=middle;resizable=0;points=[];autosize=1;strokeColor=none;fillColor=none;" parent="Psm4lfIMPpinbxjlF30g-170" vertex="1">
          <mxGeometry x="30" y="-9" width="130" height="30" as="geometry" />
        </mxCell>
        <mxCell id="Psm4lfIMPpinbxjlF30g-173" value="&amp;lt;&amp;lt;creates&amp;gt;&amp;gt;" style="text;html=1;align=center;verticalAlign=middle;whiteSpace=wrap;rounded=0;" parent="Psm4lfIMPpinbxjlF30g-170" vertex="1">
          <mxGeometry x="6" y="37" width="135" height="10" as="geometry" />
        </mxCell>
        <mxCell id="Psm4lfIMPpinbxjlF30g-169" value=":Player" style="rounded=0;whiteSpace=wrap;html=1;" parent="Psm4lfIMPpinbxjlF30g-170" vertex="1">
          <mxGeometry x="246" y="35" width="120" height="35" as="geometry" />
        </mxCell>
        <mxCell id="Psm4lfIMPpinbxjlF30g-174" value="" style="endArrow=none;dashed=1;html=1;rounded=0;entryX=0.5;entryY=1;entryDx=0;entryDy=0;strokeColor=#787878;" parent="Psm4lfIMPpinbxjlF30g-170" source="Psm4lfIMPpinbxjlF30g-175" target="Psm4lfIMPpinbxjlF30g-169" edge="1">
          <mxGeometry width="50" height="50" relative="1" as="geometry">
            <mxPoint x="306" y="390.99998474121094" as="sourcePoint" />
            <mxPoint x="305.69000000000005" y="75" as="targetPoint" />
          </mxGeometry>
        </mxCell>
        <mxCell id="Psm4lfIMPpinbxjlF30g-176" value="" style="endArrow=none;dashed=1;html=1;rounded=0;entryX=0.5;entryY=1;entryDx=0;entryDy=0;strokeColor=#767676;" parent="Psm4lfIMPpinbxjlF30g-170" target="Psm4lfIMPpinbxjlF30g-175" edge="1">
          <mxGeometry width="50" height="50" relative="1" as="geometry">
            <mxPoint x="306" y="510" as="sourcePoint" />
            <mxPoint x="645.69" y="815" as="targetPoint" />
          </mxGeometry>
        </mxCell>
        <mxCell id="Psm4lfIMPpinbxjlF30g-175" value="" style="rounded=0;whiteSpace=wrap;html=1;" parent="Psm4lfIMPpinbxjlF30g-170" vertex="1">
          <mxGeometry x="301" y="110" width="10" height="100" as="geometry" />
        </mxCell>
        <mxCell id="Psm4lfIMPpinbxjlF30g-178" value="" style="endArrow=classic;html=1;rounded=0;" parent="Psm4lfIMPpinbxjlF30g-170" edge="1">
          <mxGeometry width="50" height="50" relative="1" as="geometry">
            <mxPoint x="-19" y="129.74" as="sourcePoint" />
            <mxPoint x="300" y="130" as="targetPoint" />
          </mxGeometry>
        </mxCell>
        <mxCell id="Psm4lfIMPpinbxjlF30g-179" value="setGod(gods[i])" style="text;html=1;align=center;verticalAlign=middle;whiteSpace=wrap;rounded=0;" parent="Psm4lfIMPpinbxjlF30g-170" vertex="1">
          <mxGeometry x="6" y="110" width="135" height="10" as="geometry" />
        </mxCell>
        <mxCell id="Psm4lfIMPpinbxjlF30g-181" value="&lt;div&gt;&lt;span style=&quot;font-size: 8px;&quot;&gt;gods[i] refers to the shuffled array&lt;/span&gt;&lt;/div&gt;&lt;div&gt;&lt;span style=&quot;font-size: 8px;&quot;&gt;i is the index of the player in the Player array&lt;/span&gt;&lt;/div&gt;" style="shape=note;size=12;whiteSpace=wrap;html=1;fillColor=#fff2cc;strokeColor=#d6b656;align=left;" parent="Psm4lfIMPpinbxjlF30g-170" vertex="1">
          <mxGeometry x="6" y="60" width="134" height="40" as="geometry" />
        </mxCell>
        <mxCell id="Psm4lfIMPpinbxjlF30g-186" value="maleWorker:Worker" style="rounded=0;whiteSpace=wrap;html=1;" parent="Psm4lfIMPpinbxjlF30g-170" vertex="1">
          <mxGeometry x="394" y="129" width="120" height="35" as="geometry" />
        </mxCell>
        <mxCell id="Psm4lfIMPpinbxjlF30g-188" value="&amp;lt;&amp;lt;creates&amp;gt;&amp;gt;" style="text;html=1;align=center;verticalAlign=middle;whiteSpace=wrap;rounded=0;" parent="Psm4lfIMPpinbxjlF30g-170" vertex="1">
          <mxGeometry x="281" y="130" width="135" height="10" as="geometry" />
        </mxCell>
        <mxCell id="Psm4lfIMPpinbxjlF30g-189" value="femaleWorker:Worker" style="rounded=0;whiteSpace=wrap;html=1;" parent="Psm4lfIMPpinbxjlF30g-170" vertex="1">
          <mxGeometry x="471" y="175" width="120" height="35" as="geometry" />
        </mxCell>
        <mxCell id="Psm4lfIMPpinbxjlF30g-190" value="&amp;lt;&amp;lt;creates&amp;gt;&amp;gt;" style="text;html=1;align=center;verticalAlign=middle;whiteSpace=wrap;rounded=0;" parent="Psm4lfIMPpinbxjlF30g-170" vertex="1">
          <mxGeometry x="280" y="180" width="135" height="10" as="geometry" />
        </mxCell>
        <mxCell id="Psm4lfIMPpinbxjlF30g-191" value="" style="endArrow=classic;html=1;rounded=0;entryX=0;entryY=0.5;entryDx=0;entryDy=0;exitX=0.892;exitY=0.83;exitDx=0;exitDy=0;exitPerimeter=0;" parent="Psm4lfIMPpinbxjlF30g-170" source="Psm4lfIMPpinbxjlF30g-175" target="Psm4lfIMPpinbxjlF30g-189" edge="1">
          <mxGeometry width="50" height="50" relative="1" as="geometry">
            <mxPoint x="378" y="192.69000000000005" as="sourcePoint" />
            <mxPoint x="643" y="193" as="targetPoint" />
          </mxGeometry>
        </mxCell>
        <mxCell id="Psm4lfIMPpinbxjlF30g-193" value="" style="endArrow=none;dashed=1;html=1;rounded=0;entryX=0.5;entryY=1;entryDx=0;entryDy=0;strokeColor=#767676;" parent="Psm4lfIMPpinbxjlF30g-170" edge="1">
          <mxGeometry width="50" height="50" relative="1" as="geometry">
            <mxPoint x="454" y="500" as="sourcePoint" />
            <mxPoint x="453.69000000000005" y="164" as="targetPoint" />
          </mxGeometry>
        </mxCell>
        <mxCell id="Psm4lfIMPpinbxjlF30g-194" value="" style="endArrow=none;dashed=1;html=1;rounded=0;entryX=0.5;entryY=1;entryDx=0;entryDy=0;strokeColor=#767676;" parent="Psm4lfIMPpinbxjlF30g-170" edge="1">
          <mxGeometry width="50" height="50" relative="1" as="geometry">
            <mxPoint x="533" y="500" as="sourcePoint" />
            <mxPoint x="530.69" y="210" as="targetPoint" />
          </mxGeometry>
        </mxCell>
        <mxCell id="Psm4lfIMPpinbxjlF30g-40" value="" style="endArrow=classic;html=1;rounded=0;entryX=0;entryY=0.5;entryDx=0;entryDy=0;exitX=1.142;exitY=0.186;exitDx=0;exitDy=0;exitPerimeter=0;" parent="1" source="Psm4lfIMPpinbxjlF30g-1" target="Psm4lfIMPpinbxjlF30g-8" edge="1">
          <mxGeometry width="50" height="50" relative="1" as="geometry">
            <mxPoint x="90" y="240" as="sourcePoint" />
            <mxPoint x="272.5" y="245" as="targetPoint" />
          </mxGeometry>
        </mxCell>
        <mxCell id="Psm4lfIMPpinbxjlF30g-185" value="" style="endArrow=classic;html=1;rounded=0;entryX=0;entryY=0.5;entryDx=0;entryDy=0;" parent="1" target="Psm4lfIMPpinbxjlF30g-186" edge="1">
          <mxGeometry width="50" height="50" relative="1" as="geometry">
            <mxPoint x="578" y="856.69" as="sourcePoint" />
            <mxPoint x="843" y="857" as="targetPoint" />
          </mxGeometry>
        </mxCell>
        <mxCell id="Psm4lfIMPpinbxjlF30g-195" value="" style="endArrow=classic;html=1;rounded=0;entryX=0.803;entryY=0.954;entryDx=0;entryDy=0;entryPerimeter=0;" parent="1" target="Psm4lfIMPpinbxjlF30g-16" edge="1">
          <mxGeometry width="50" height="50" relative="1" as="geometry">
            <mxPoint x="250" y="950" as="sourcePoint" />
            <mxPoint x="259" y="1160" as="targetPoint" />
            <Array as="points">
              <mxPoint x="960" y="950" />
              <mxPoint x="960" y="1160" />
            </Array>
          </mxGeometry>
        </mxCell>
        <mxCell id="Psm4lfIMPpinbxjlF30g-197" value="&amp;nbsp;addRandomlyPlacedWorkers()&amp;nbsp;" style="text;html=1;align=center;verticalAlign=middle;whiteSpace=wrap;rounded=0;" parent="1" vertex="1">
          <mxGeometry x="980" y="1048" width="135" height="10" as="geometry" />
        </mxCell>
        <mxCell id="Psm4lfIMPpinbxjlF30g-200" value="&lt;b&gt;loop&lt;/b&gt;" style="shape=umlFrame;whiteSpace=wrap;html=1;pointerEvents=0;recursiveResize=0;container=1;collapsible=0;width=40;height=20;fillColor=#B3B3B3;" parent="1" vertex="1">
          <mxGeometry x="521" y="965" width="439" height="162" as="geometry" />
        </mxCell>
        <mxCell id="Psm4lfIMPpinbxjlF30g-201" value="&lt;span style=&quot;font-size: 8px;&quot;&gt;&lt;b&gt;[for each player]&lt;/b&gt;&lt;/span&gt;" style="text;html=1;align=center;verticalAlign=middle;resizable=0;points=[];autosize=1;strokeColor=none;fillColor=none;" parent="Psm4lfIMPpinbxjlF30g-200" vertex="1">
          <mxGeometry x="41.5" y="-5" width="90" height="30" as="geometry" />
        </mxCell>
        <mxCell id="Psm4lfIMPpinbxjlF30g-198" value="&lt;b&gt;loop&lt;/b&gt;" style="shape=umlFrame;whiteSpace=wrap;html=1;pointerEvents=0;recursiveResize=0;container=1;collapsible=0;width=40;height=20;fillColor=#B3B3B3;" parent="Psm4lfIMPpinbxjlF30g-200" vertex="1">
          <mxGeometry x="10" y="30" width="429" height="115" as="geometry" />
        </mxCell>
        <mxCell id="Psm4lfIMPpinbxjlF30g-199" value="&lt;font style=&quot;font-size: 8px;&quot;&gt;&lt;b&gt;[for each worker]&lt;/b&gt;&lt;/font&gt;" style="text;html=1;align=center;verticalAlign=middle;resizable=0;points=[];autosize=1;strokeColor=none;fillColor=none;" parent="Psm4lfIMPpinbxjlF30g-198" vertex="1">
          <mxGeometry x="36" y="-6.5" width="90" height="30" as="geometry" />
        </mxCell>
        <mxCell id="Psm4lfIMPpinbxjlF30g-222" value="" style="rounded=0;whiteSpace=wrap;html=1;" parent="Psm4lfIMPpinbxjlF30g-198" vertex="1">
          <mxGeometry x="184" y="20" width="10" height="40" as="geometry" />
        </mxCell>
        <mxCell id="Psm4lfIMPpinbxjlF30g-223" value="" style="rounded=0;whiteSpace=wrap;html=1;" parent="Psm4lfIMPpinbxjlF30g-198" vertex="1">
          <mxGeometry x="262" y="69" width="10" height="42" as="geometry" />
        </mxCell>
        <mxCell id="nvAkXaT37K51q5hLXnYD-1" value="addWorker()" style="text;html=1;align=center;verticalAlign=middle;whiteSpace=wrap;rounded=0;" parent="Psm4lfIMPpinbxjlF30g-198" vertex="1">
          <mxGeometry x="267" y="35" width="135" height="10" as="geometry" />
        </mxCell>
        <mxCell id="nvAkXaT37K51q5hLXnYD-2" value="addWorker()" style="text;html=1;align=center;verticalAlign=middle;whiteSpace=wrap;rounded=0;" parent="Psm4lfIMPpinbxjlF30g-198" vertex="1">
          <mxGeometry x="267" y="81.00000000000004" width="135" height="10" as="geometry" />
        </mxCell>
        <mxCell id="nvAkXaT37K51q5hLXnYD-3" value="" style="endArrow=classic;html=1;rounded=0;" parent="Psm4lfIMPpinbxjlF30g-198" edge="1">
          <mxGeometry width="50" height="50" relative="1" as="geometry">
            <mxPoint x="272" y="95" as="sourcePoint" />
            <mxPoint x="379" y="95" as="targetPoint" />
          </mxGeometry>
        </mxCell>
        <mxCell id="Psm4lfIMPpinbxjlF30g-216" value="" style="endArrow=none;dashed=1;html=1;rounded=0;entryX=0.5;entryY=1;entryDx=0;entryDy=0;strokeColor=#767676;" parent="1" target="Psm4lfIMPpinbxjlF30g-215" edge="1">
          <mxGeometry width="50" height="50" relative="1" as="geometry">
            <mxPoint x="916" y="1230" as="sourcePoint" />
            <mxPoint x="960" y="253" as="targetPoint" />
          </mxGeometry>
        </mxCell>
        <mxCell id="Psm4lfIMPpinbxjlF30g-219" value="" style="endArrow=none;dashed=1;html=1;rounded=0;entryX=0.5;entryY=1;entryDx=0;entryDy=0;strokeColor=#767676;" parent="1" target="Psm4lfIMPpinbxjlF30g-215" edge="1">
          <mxGeometry width="50" height="50" relative="1" as="geometry">
            <mxPoint x="915" y="1010" as="sourcePoint" />
            <mxPoint x="915" y="253" as="targetPoint" />
          </mxGeometry>
        </mxCell>
        <mxCell id="Psm4lfIMPpinbxjlF30g-215" value="" style="rounded=0;whiteSpace=wrap;html=1;" parent="1" vertex="1">
          <mxGeometry x="911" y="1033" width="10" height="72" as="geometry" />
        </mxCell>
        <mxCell id="Psm4lfIMPpinbxjlF30g-220" value="" style="endArrow=classic;html=1;rounded=0;exitX=1.122;exitY=0.801;exitDx=0;exitDy=0;exitPerimeter=0;" parent="1" source="Psm4lfIMPpinbxjlF30g-16" edge="1">
          <mxGeometry width="50" height="50" relative="1" as="geometry">
            <mxPoint x="254" y="1030.89" as="sourcePoint" />
            <mxPoint x="715" y="1028" as="targetPoint" />
          </mxGeometry>
        </mxCell>
        <mxCell id="Psm4lfIMPpinbxjlF30g-221" value="setCoordinate(coord,board)" style="text;html=1;align=center;verticalAlign=middle;whiteSpace=wrap;rounded=0;" parent="1" vertex="1">
          <mxGeometry x="274" y="1011.2" width="135" height="10" as="geometry" />
        </mxCell>
        <mxCell id="Psm4lfIMPpinbxjlF30g-227" value="" style="endArrow=classic;html=1;rounded=0;exitX=0.95;exitY=0.756;exitDx=0;exitDy=0;exitPerimeter=0;entryX=0;entryY=0.25;entryDx=0;entryDy=0;" parent="1" target="Psm4lfIMPpinbxjlF30g-223" edge="1">
          <mxGeometry width="50" height="50" relative="1" as="geometry">
            <mxPoint x="249" y="1079" as="sourcePoint" />
            <mxPoint x="790" y="1076" as="targetPoint" />
          </mxGeometry>
        </mxCell>
        <mxCell id="Psm4lfIMPpinbxjlF30g-228" value="setCoordinate(coord,board)" style="text;html=1;align=center;verticalAlign=middle;whiteSpace=wrap;rounded=0;" parent="1" vertex="1">
          <mxGeometry x="274" y="1061.2" width="135" height="10" as="geometry" />
        </mxCell>
        <mxCell id="Psm4lfIMPpinbxjlF30g-229" value="" style="endArrow=classic;html=1;rounded=0;exitX=1;exitY=0.75;exitDx=0;exitDy=0;entryX=-0.143;entryY=0.165;entryDx=0;entryDy=0;entryPerimeter=0;" parent="1" source="Psm4lfIMPpinbxjlF30g-222" target="Psm4lfIMPpinbxjlF30g-215" edge="1">
          <mxGeometry width="50" height="50" relative="1" as="geometry">
            <mxPoint x="370" y="1051.7" as="sourcePoint" />
            <mxPoint x="900" y="1045" as="targetPoint" />
          </mxGeometry>
        </mxCell>
      </root>
    </mxGraphModel>
  </diagram>
</mxfile>
